<?xml version="1.0" standalone="no"?>
<!DOCTYPE svg PUBLIC "-//W3C//DTD SVG 20010904//EN"
 "http://www.w3.org/TR/2001/REC-SVG-20010904/DTD/svg10.dtd">
<svg version="1.0" xmlns="http://www.w3.org/2000/svg"
 width="300.000000pt" height="300.000000pt" viewBox="0 0 300.000000 300.000000"
 preserveAspectRatio="xMidYMid meet">
<metadata>
Created by potrace 1.11, written by Peter Selinger 2001-2013
</metadata>
<g transform="translate(0.000000,300.000000) scale(0.100000,-0.100000)"
fill="#000000" stroke="none">
<path d="M481 2379 c-8 -23 -11 -274 -11 -860 0 -739 2 -829 16 -843 13 -14
52 -16 272 -15 386 0 768 15 827 32 174 49 305 189 345 368 7 33 11 94 8 145
-3 74 -9 101 -36 157 -39 85 -109 154 -202 201 l-70 35 33 20 c17 11 53 41 79
68 220 227 118 591 -195 696 -59 20 -85 21 -558 25 l-497 3 -11 -32z m899
-295 c154 -70 158 -276 7 -340 -36 -15 -80 -18 -294 -22 l-253 -4 0 189 c0
104 3 193 8 197 4 5 115 6 247 4 215 -4 245 -6 285 -24z m20 -684 c97 -37 152
-103 158 -192 6 -84 -4 -124 -45 -169 -57 -63 -92 -69 -405 -69 l-268 0 0 226
0 226 263 -4 c183 -4 273 -9 297 -18z"/>
<path d="M2142 2385 c-18 -38 -15 -410 4 -585 8 -80 21 -215 29 -300 25 -278
36 -364 47 -377 11 -14 105 -17 168 -7 l35 6 43 451 c34 358 43 492 42 645 l0
192 -178 0 -179 0 -11 -25z"/>
<path d="M2153 973 c-8 -17 -13 -73 -13 -153 0 -164 -4 -160 152 -160 63 0
136 3 162 6 l46 7 0 163 0 164 -167 0 -168 0 -12 -27z"/>
</g>
</svg>
